<svg xmlns="http://www.w3.org/2000/svg" viewBox="0 0 24 24" role="img" aria-labelledby="title">
  <title id="title">Conduit</title>
  <rect width="24" height="24" rx="5" fill="#18181b"/>
  <g fill="none" stroke="#a5b4fc" stroke-linecap="round" stroke-linejoin="round" stroke-width="1.8">
    <path d="M17 19a1 1 0 0 1-1-1v-2a2 2 0 0 1 2-2h2a2 2 0 0 1 2 2v2a1 1 0 0 1-1 1z"/>
    <path d="M17 21v-2M19 14V6.5a1 1 0 0 0-7 0v11a1 1 0 0 1-7 0V10M21 21v-2M3 5V3"/>
    <path d="M4 10a2 2 0 0 1-2-2V6a1 1 0 0 1 1-1h4a1 1 0 0 1 1 1v2a2 2 0 0 1-2 2zM7 5V3"/>
  </g>
</svg>
